<svg width="54" height="54" viewBox="0 0 54 54" fill="none" xmlns="http://www.w3.org/2000/svg">
<g clip-path="url(#clip0_131_104)">
<path d="M27 4.5C14.58 4.5 4.5 14.58 4.5 27C4.5 39.42 14.58 49.5 27 49.5C39.42 49.5 49.5 39.42 49.5 27C49.5 14.58 39.42 4.5 27 4.5ZM27 45C17.055 45 9 36.945 9 27C9 17.055 17.055 9 27 9C36.945 9 45 17.055 45 27C45 36.945 36.945 45 27 45Z" fill="white"/>
<path d="M15.9751 22.9048C16.5601 24.1648 16.8526 25.5148 16.8751 26.9548C16.8976 28.3723 16.5826 29.7673 15.9751 31.1398L19.0576 32.5348C19.8901 30.7123 20.2951 28.8223 20.2726 26.9098C20.2501 25.0198 19.8451 23.1973 19.0576 21.5098L15.9751 22.9048Z" fill="white"/>
<path d="M29.9924 16.4924C31.7474 20.0249 32.6474 23.5574 32.6474 26.9324C32.6474 30.3299 31.7474 33.8849 29.9924 37.4849L33.0299 38.9699C35.0099 34.8974 36.0224 30.8474 36.0224 26.9324C36.0224 23.0174 35.0099 18.9899 33.0299 14.9849L29.9924 16.4924Z" fill="white"/>
<path d="M22.95 19.6198C24.1425 22.0273 24.75 24.5923 24.75 27.2698C24.75 29.9023 24.165 32.2873 22.995 34.3573L25.92 36.0223C27.3825 33.4348 28.125 30.5098 28.125 27.2698C28.125 24.0748 27.405 20.9923 25.965 18.1123L22.95 19.6198Z" fill="white"/>
</g>
<defs>
<clipPath id="clip0_131_104">
<rect width="54" height="54" fill="white"/>
</clipPath>
</defs>
</svg>
