<svg width="141" height="161" viewBox="0 0 141 161" fill="none" xmlns="http://www.w3.org/2000/svg">
<path fill-rule="evenodd" clip-rule="evenodd" d="M0 0V98H42.84C46.6172 98 50.2296 97.7412 53.6775 97.2237V161H102.397C115.091 161 124.657 158.667 131.097 154C137.537 149.334 140.757 142.8 140.757 134.4C140.757 128.707 139.451 123.947 136.837 120.12C134.317 116.294 130.864 113.4 126.477 111.44C125.362 110.918 124.211 110.463 123.024 110.073C126.782 108.055 129.8 105.337 132.077 101.92C134.504 98.1869 135.717 93.7069 135.717 88.4802C135.717 80.7336 132.637 74.5736 126.477 70.0002C120.317 65.3336 111.357 63.0002 99.5975 63.0002H94.5847C95.7416 58.6468 96.32 53.9801 96.32 49C96.32 39.1067 94.08 30.52 89.6 23.24C85.12 15.96 78.8667 10.2667 70.84 6.16001C62.8133 2.05334 53.48 0 42.84 0H0ZM87.9333 77.2802C88.5138 76.4624 89.0693 75.6223 89.6 74.76C91.8034 71.1336 93.465 67.2137 94.5847 63.0002H75.336C77.0987 58.8292 77.98 54.1625 77.98 49C77.98 42.1867 76.4867 36.3067 73.5 31.36C70.6067 26.32 66.4533 22.4 61.04 19.6C55.6267 16.8 49.28 15.4 42 15.4H18.2V82.6H42C46.2037 82.6 50.0962 82.1332 53.6775 81.1996V97.2237C59.9419 96.2834 65.6628 94.4888 70.84 91.84C71.1892 91.6614 71.535 91.4797 71.8775 91.2951V104.3H97.6375C103.984 104.3 108.837 103.18 112.197 100.94C115.651 98.7002 117.377 95.3402 117.377 90.8602C117.377 86.2869 115.651 82.8802 112.197 80.6402C108.837 78.4002 103.984 77.2802 97.6375 77.2802H87.9333ZM71.8775 118.44V146.72H101.277C108.091 146.72 113.317 145.6 116.957 143.36C120.597 141.12 122.417 137.527 122.417 132.58C122.417 127.727 120.597 124.18 116.957 121.94C113.317 119.607 108.091 118.44 101.277 118.44H71.8775ZM87.9333 77.2802C83.8268 83.0662 78.4749 87.7378 71.8775 91.2951V77.2802H87.9333ZM53.6775 81.1996V63.0002H75.336C74.8042 64.2586 74.1922 65.4719 73.5 66.64C70.6067 71.68 66.4533 75.6 61.04 78.4C58.7525 79.5832 56.2983 80.5164 53.6775 81.1996Z" fill="#EBEBEB"/>
</svg>
