<svg width="40" height="40" viewBox="0 0 40 40" fill="none" xmlns="http://www.w3.org/2000/svg">
<path d="M15.1111 29.5C14.6667 29.0556 14.4533 28.5185 14.4711 27.8889C14.4904 27.2593 14.7222 26.7222 15.1667 26.2778L19.2222 22.2222H2.22222C1.59259 22.2222 1.06519 22.0089 0.64 21.5822C0.213334 21.157 0 20.6296 0 20C0 19.3704 0.213334 18.8422 0.64 18.4156C1.06519 17.9904 1.59259 17.7778 2.22222 17.7778H19.2222L15.1111 13.6667C14.6667 13.2222 14.4444 12.6948 14.4444 12.0844C14.4444 11.4726 14.6667 10.9444 15.1111 10.5C15.5556 10.0556 16.0837 9.83333 16.6956 9.83333C17.3059 9.83333 17.8333 10.0556 18.2778 10.5L26.2222 18.4444C26.4444 18.6667 26.6022 18.9074 26.6956 19.1667C26.7874 19.4259 26.8333 19.7037 26.8333 20C26.8333 20.2963 26.7874 20.5741 26.6956 20.8333C26.6022 21.0926 26.4444 21.3333 26.2222 21.5556L18.2222 29.5556C17.8148 29.963 17.3059 30.1667 16.6956 30.1667C16.0837 30.1667 15.5556 29.9444 15.1111 29.5ZM4.44444 40C3.22222 40 2.17556 39.5652 1.30444 38.6956C0.434815 37.8244 0 36.7778 0 35.5556V28.8889C0 28.2593 0.213334 27.7311 0.64 27.3044C1.06519 26.8793 1.59259 26.6667 2.22222 26.6667C2.85185 26.6667 3.38 26.8793 3.80667 27.3044C4.23185 27.7311 4.44444 28.2593 4.44444 28.8889V35.5556H35.5556V4.44444H4.44444V11.1111C4.44444 11.7407 4.23185 12.2681 3.80667 12.6933C3.38 13.12 2.85185 13.3333 2.22222 13.3333C1.59259 13.3333 1.06519 13.12 0.64 12.6933C0.213334 12.2681 0 11.7407 0 11.1111V4.44444C0 3.22222 0.434815 2.17556 1.30444 1.30444C2.17556 0.434815 3.22222 0 4.44444 0H35.5556C36.7778 0 37.8244 0.434815 38.6956 1.30444C39.5652 2.17556 40 3.22222 40 4.44444V35.5556C40 36.7778 39.5652 37.8244 38.6956 38.6956C37.8244 39.5652 36.7778 40 35.5556 40H4.44444Z" fill="white"/>
</svg>
