<svg width="415" height="447" viewBox="0 0 415 447" fill="none" xmlns="http://www.w3.org/2000/svg">
<path fill-rule="evenodd" clip-rule="evenodd" d="M0 0V280H122.4C137.787 280 152.218 278.497 165.692 275.491V446.816H304.892C341.159 446.816 368.492 440.15 386.892 426.816C405.292 413.483 414.492 394.816 414.492 370.816C414.492 354.55 410.759 340.95 403.292 330.016C396.092 319.083 386.225 310.816 373.692 305.216C370.506 303.725 367.217 302.423 363.824 301.311C374.562 295.543 383.184 287.778 389.692 278.016C396.626 267.35 400.092 254.55 400.092 239.616C400.092 217.483 391.292 199.883 373.692 186.816C356.092 173.483 330.492 166.816 296.892 166.816H273.071C274.49 158.262 275.2 149.323 275.2 140C275.2 111.733 268.8 87.2 256 66.4C243.2 45.6 225.333 29.3333 202.4 17.6C179.467 5.86667 152.8 0 122.4 0H0ZM259.414 207.616C266.073 195.158 270.626 181.558 273.071 166.816H219.646C221.749 158.469 222.8 149.53 222.8 140C222.8 120.533 218.533 103.733 210 89.6C201.733 75.2 189.867 64 174.4 56C158.933 48 140.8 44 120 44H52V236H120C137.015 236 152.246 233.323 165.692 227.97V275.491C178.839 272.558 191.075 268.194 202.4 262.4C207.776 259.65 212.873 256.65 217.692 253.402V284.816H291.292C309.426 284.816 323.292 281.616 332.892 275.216C342.759 268.816 347.692 259.216 347.692 246.416C347.692 233.35 342.759 223.616 332.892 217.216C323.292 210.816 309.426 207.616 291.292 207.616H259.414ZM217.692 325.216V406.016H301.692C321.159 406.016 336.092 402.816 346.492 396.416C356.892 390.016 362.092 379.75 362.092 365.616C362.092 351.75 356.892 341.616 346.492 335.216C336.092 328.55 321.159 325.216 301.692 325.216H217.692ZM259.414 207.616C258.331 209.641 257.194 211.636 256 213.6C246.2 229.524 233.431 242.791 217.692 253.402V207.616H259.414ZM165.692 227.97V166.816H219.646C217.513 175.286 214.298 183.148 210 190.4C201.733 204.8 189.867 216 174.4 224C171.586 225.456 168.683 226.779 165.692 227.97Z" fill="white"/>
</svg>
