<svg width="70" height="41" viewBox="0 0 70 41" fill="none" xmlns="http://www.w3.org/2000/svg">
<rect width="70" height="41" rx="5" fill="#EBEBEB"/>
<path d="M20.256 29V12.2H27.144C29.384 12.2 31.136 12.728 32.4 13.784C33.68 14.84 34.32 16.304 34.32 18.176C34.32 19.408 34.032 20.472 33.456 21.368C32.88 22.248 32.056 22.928 30.984 23.408C29.928 23.872 28.656 24.104 27.168 24.104H21.984L23.376 22.688V29H20.256ZM31.248 29L27 22.904H30.336L34.608 29H31.248ZM23.376 23.024L21.984 21.536H27.024C28.4 21.536 29.432 21.24 30.12 20.648C30.824 20.056 31.176 19.232 31.176 18.176C31.176 17.104 30.824 16.28 30.12 15.704C29.432 15.128 28.4 14.84 27.024 14.84H21.984L23.376 13.304V23.024ZM43.0187 29.24C41.7067 29.24 40.4507 29.056 39.2507 28.688C38.0507 28.304 37.0987 27.816 36.3947 27.224L37.4747 24.8C38.1467 25.328 38.9787 25.768 39.9707 26.12C40.9627 26.472 41.9787 26.648 43.0187 26.648C43.8987 26.648 44.6107 26.552 45.1547 26.36C45.6987 26.168 46.0987 25.912 46.3547 25.592C46.6107 25.256 46.7387 24.88 46.7387 24.464C46.7387 23.952 46.5547 23.544 46.1867 23.24C45.8187 22.92 45.3387 22.672 44.7467 22.496C44.1707 22.304 43.5227 22.128 42.8027 21.968C42.0987 21.808 41.3867 21.624 40.6667 21.416C39.9627 21.192 39.3147 20.912 38.7227 20.576C38.1467 20.224 37.6747 19.76 37.3067 19.184C36.9387 18.608 36.7547 17.872 36.7547 16.976C36.7547 16.064 36.9947 15.232 37.4747 14.48C37.9707 13.712 38.7147 13.104 39.7067 12.656C40.7147 12.192 41.9867 11.96 43.5227 11.96C44.5307 11.96 45.5307 12.088 46.5227 12.344C47.5147 12.6 48.3787 12.968 49.1147 13.448L48.1307 15.872C47.3787 15.424 46.6027 15.096 45.8027 14.888C45.0027 14.664 44.2347 14.552 43.4987 14.552C42.6347 14.552 41.9307 14.656 41.3867 14.864C40.8587 15.072 40.4667 15.344 40.2107 15.68C39.9707 16.016 39.8507 16.4 39.8507 16.832C39.8507 17.344 40.0267 17.76 40.3787 18.08C40.7467 18.384 41.2187 18.624 41.7947 18.8C42.3867 18.976 43.0427 19.152 43.7627 19.328C44.4827 19.488 45.1947 19.672 45.8987 19.88C46.6187 20.088 47.2667 20.36 47.8427 20.696C48.4347 21.032 48.9067 21.488 49.2587 22.064C49.6267 22.64 49.8107 23.368 49.8107 24.248C49.8107 25.144 49.5627 25.976 49.0667 26.744C48.5867 27.496 47.8427 28.104 46.8347 28.568C45.8267 29.016 44.5547 29.24 43.0187 29.24ZM42.2747 31.88V9.32H44.2187V31.88H42.2747Z" fill="#000093"/>
</svg>
