<svg width="123" height="117" viewBox="0 0 123 117" fill="none" xmlns="http://www.w3.org/2000/svg">
<ellipse cx="61.5" cy="58.4588" rx="61.5" ry="58.4588" fill="#EBEBEB"/>
<path d="M62.8141 55.0417C56.6776 53.3209 54.7042 51.5417 54.7042 48.7709C54.7042 45.5917 57.4345 43.375 62.0031 43.375C66.8149 43.375 68.5991 45.8542 68.7613 49.5H74.7356C74.5464 44.4834 71.7079 39.875 66.058 38.3875V32H57.9481V38.3C52.7037 39.525 48.4866 43.2 48.4866 48.8292C48.4866 55.5667 53.6499 58.9209 61.1921 60.875C67.9503 62.625 69.302 65.1917 69.302 67.9042C69.302 69.9167 67.9774 73.1251 62.0031 73.1251C56.4343 73.1251 54.2446 70.4417 53.9473 67.0001H48C48.3244 73.3876 52.7578 76.9751 57.9481 78.1709V84.5001H66.058V78.2292C71.3295 77.1501 75.5196 73.8542 75.5196 67.8751C75.5196 59.5917 68.9506 56.7625 62.8141 55.0417Z" fill="black"/>
</svg>
