<svg width="64" height="64" viewBox="0 0 64 64" fill="none" xmlns="http://www.w3.org/2000/svg">
<g clip-path="url(#clip0_59_20)">
<path d="M31.8408 12.4887C18.8333 12.4887 7.72485 20.5794 3.22424 32C7.72485 43.4206 18.8333 51.5113 31.8408 51.5113C44.8484 51.5113 55.9568 43.4206 60.4574 32C55.9568 20.5794 44.8484 12.4887 31.8408 12.4887ZM31.8408 45.0075C24.6607 45.0075 18.8333 39.1802 18.8333 32C18.8333 24.8198 24.6607 18.9925 31.8408 18.9925C39.021 18.9925 44.8484 24.8198 44.8484 32C44.8484 39.1802 39.021 45.0075 31.8408 45.0075ZM31.8408 24.1955C27.5223 24.1955 24.0363 27.6815 24.0363 32C24.0363 36.3185 27.5223 39.8045 31.8408 39.8045C36.1594 39.8045 39.6454 36.3185 39.6454 32C39.6454 27.6815 36.1594 24.1955 31.8408 24.1955Z" fill="black"/>
</g>
<defs>
<clipPath id="clip0_59_20">
<rect width="62.4362" height="62.4362" fill="white" transform="translate(0.622681 0.781883)"/>
</clipPath>
</defs>
</svg>
