<svg width="633" height="563" viewBox="0 0 633 563" fill="none" xmlns="http://www.w3.org/2000/svg">
<path d="M-16.0295 605.031C132.327 670.568 372.85 670.588 521.207 605.031C669.564 539.474 669.542 433.225 521.207 367.688C372.872 302.151 132.327 302.151 -16.0295 367.688C-164.386 433.225 -164.365 539.494 -16.0295 605.031Z" fill="#EBEBEB"/>
<path d="M520.69 556.596C548.013 556.596 570.163 546.813 570.163 534.744C570.163 522.675 548.013 512.892 520.69 512.892C493.366 512.892 471.216 522.675 471.216 534.744C471.216 546.813 493.366 556.596 520.69 556.596Z" fill="#EBEBEB"/>
<path d="M-27.2896 537.878L-9.78641 528.518C-0.013937 521.126 7.42414 511.425 11.7427 500.439C17.1465 486.629 16.3929 476.132 12.5177 470.864C7.75978 464.378 -4.57637 465.515 -5.07154 479.166C-6.10493 506.067 -14.5659 524.726 -27.2896 537.878Z" fill="#3118DF"/>
<path opacity="0.2" d="M-27.2896 537.878L-9.78641 528.518C-0.013937 521.126 7.42414 511.425 11.7427 500.439C17.1465 486.629 16.3929 476.132 12.5177 470.864C7.75978 464.378 -4.57637 465.515 -5.07154 479.166C-6.10493 506.067 -14.5659 524.726 -27.2896 537.878Z" fill="black"/>
<path d="M-27.2888 538.875C-27.5167 538.873 -27.7379 538.803 -27.9204 538.676C-28.1029 538.55 -28.2374 538.373 -28.3045 538.171C-28.3715 537.969 -28.3676 537.752 -28.2934 537.553C-28.2192 537.353 -28.0785 537.18 -27.8916 537.059C12.583 511.116 4.74646 474.934 4.66035 474.575C4.63066 474.444 4.62911 474.309 4.65578 474.177C4.68245 474.046 4.73683 473.92 4.8158 473.808C4.89476 473.696 4.99678 473.6 5.11602 473.524C5.23526 473.448 5.36939 473.395 5.51075 473.368C5.65211 473.34 5.79795 473.339 5.93991 473.364C6.08187 473.388 6.21718 473.439 6.33813 473.512C6.45908 473.585 6.5633 473.68 6.64482 473.79C6.72635 473.901 6.78357 474.025 6.81325 474.156C6.81325 474.535 15.0804 511.954 -26.5999 538.695C-26.8021 538.824 -27.0441 538.887 -27.2888 538.875Z" fill="white"/>
<path d="M396.403 429.094C396.403 429.094 386.995 414.965 386.069 399.619C385.143 384.272 388.782 377.886 393.777 376.05C398.771 374.214 399.159 379.862 401.721 383.194C404.283 386.527 409.514 384.631 411.452 374.234C413.39 363.837 420.451 346.295 435.134 342.882C451.281 339.17 442.626 356.732 438.557 363.577C434.488 370.422 431.345 379.762 434.014 382.296C436.684 384.831 440.839 380.141 444.779 384.492C449.58 389.74 434.66 408.639 426.092 413.209L396.403 429.094Z" fill="#3118DF"/>
<path d="M409.299 423.167C409.158 423.162 409.019 423.131 408.89 423.076C408.762 423.021 408.646 422.943 408.55 422.847C408.454 422.751 408.38 422.638 408.331 422.514C408.282 422.391 408.26 422.26 408.266 422.129C409.723 397.442 418.029 373.522 432.378 352.681C432.459 352.572 432.564 352.48 432.684 352.41C432.805 352.34 432.94 352.293 433.081 352.272C433.222 352.252 433.366 352.258 433.504 352.29C433.642 352.323 433.772 352.381 433.885 352.461C434.111 352.617 434.262 352.848 434.306 353.105C434.35 353.362 434.284 353.625 434.122 353.838C420.029 374.374 411.874 397.926 410.44 422.229C410.432 422.36 410.396 422.489 410.334 422.607C410.272 422.725 410.186 422.831 410.08 422.918C409.974 423.005 409.85 423.072 409.716 423.115C409.582 423.157 409.44 423.175 409.299 423.167Z" fill="white"/>
<path d="M410.526 411.373C410.346 411.371 410.169 411.33 410.01 411.253C403.981 408.16 400.644 398.98 400.515 398.601C400.468 398.476 400.447 398.345 400.455 398.213C400.463 398.081 400.499 397.952 400.561 397.833C400.623 397.714 400.71 397.608 400.817 397.521C400.924 397.433 401.048 397.366 401.183 397.324C401.454 397.242 401.749 397.263 402.003 397.383C402.258 397.503 402.45 397.711 402.539 397.962C402.539 397.962 405.768 406.803 411.151 409.497C411.394 409.631 411.573 409.847 411.649 410.099C411.726 410.352 411.694 410.623 411.56 410.854C411.462 411.026 411.312 411.167 411.128 411.259C410.944 411.352 410.735 411.391 410.526 411.373Z" fill="white"/>
<path d="M411.58 405.326C411.342 405.324 411.111 405.248 410.924 405.111C410.737 404.974 410.604 404.783 410.547 404.568C410.511 404.442 410.503 404.311 410.523 404.182C410.543 404.054 410.591 403.93 410.663 403.818C410.735 403.707 410.831 403.61 410.944 403.533C411.057 403.456 411.185 403.401 411.322 403.371C426.866 399.719 432.248 392.175 432.291 392.095C432.367 391.984 432.467 391.887 432.583 391.812C432.7 391.736 432.831 391.682 432.97 391.653C433.109 391.625 433.253 391.621 433.393 391.644C433.533 391.667 433.667 391.715 433.787 391.786C433.908 391.857 434.012 391.949 434.093 392.057C434.175 392.165 434.233 392.286 434.264 392.415C434.295 392.544 434.298 392.677 434.274 392.807C434.249 392.937 434.197 393.061 434.121 393.173C433.884 393.512 428.287 401.435 411.86 405.306L411.58 405.326Z" fill="white"/>
<path d="M162.166 398.082C162.166 398.082 141.52 393.412 140.443 357.57C139.302 318.895 145.503 273.753 121.067 270.101C96.6316 266.449 83.0683 294.049 83.3697 326.278C83.6495 354.497 95.9211 415.764 162.08 427.777L162.166 398.082Z" fill="#3118DF"/>
<path opacity="0.2" d="M162.166 398.082C162.166 398.082 141.52 393.412 140.443 357.57C139.302 318.895 145.503 273.753 121.067 270.101C96.6316 266.449 83.0683 294.049 83.3697 326.278C83.6495 354.497 95.9211 415.764 162.08 427.777L162.166 398.082Z" fill="black"/>
<path d="M162.167 424.105H161.973C147.096 421.591 134.975 413.987 125.955 401.534C99.2155 364.555 107.633 295.505 110.411 283.452C110.473 283.195 110.64 282.97 110.877 282.825C111.113 282.68 111.402 282.626 111.681 282.673C111.96 282.735 112.202 282.894 112.358 283.117C112.514 283.34 112.573 283.609 112.52 283.871C109.786 295.845 101.411 364.016 127.742 400.417C131.574 406.062 136.631 410.907 142.59 414.644C148.55 418.382 155.282 420.931 162.36 422.129C162.501 422.153 162.635 422.203 162.754 422.275C162.874 422.348 162.977 422.441 163.057 422.551C163.137 422.661 163.193 422.784 163.221 422.914C163.249 423.043 163.25 423.177 163.221 423.307C163.176 423.534 163.045 423.739 162.852 423.885C162.658 424.031 162.416 424.109 162.167 424.105Z" fill="white"/>
<path d="M162.167 516.085C140.831 518.759 106.191 518.719 86.1904 504.111C66.1899 489.503 70.3665 476.93 78.0524 471.682C85.7383 466.433 92.4123 460.446 79.1935 448.791C65.9746 437.137 44.7469 418.418 37.8576 390.339C30.9683 362.26 34.3699 344.698 47.8902 338.851C61.0014 333.183 64.4676 342.204 72.4979 360.803C80.5283 379.403 98.5912 363.457 114.049 369.265C129.507 375.072 128.883 386.567 129.851 396.445C130.82 406.324 135.923 409.058 144.685 409.058C153.447 409.058 162.167 413.728 162.167 423.028V516.085Z" fill="#3118DF"/>
<path d="M162.166 483.476C162.074 483.495 161.978 483.495 161.886 483.476C160.96 483.236 138.893 477.289 106.75 449.929C72.5189 420.793 56.3721 377.088 56.1999 376.649C56.1173 376.397 56.143 376.126 56.2714 375.892C56.3998 375.657 56.6211 375.478 56.8888 375.391C57.1572 375.309 57.45 375.327 57.7038 375.443C57.9576 375.559 58.1521 375.762 58.2451 376.01C58.3958 376.449 74.392 419.675 108.214 448.452C139.905 475.453 162.231 481.5 162.467 481.56C162.603 481.597 162.73 481.658 162.84 481.74C162.95 481.822 163.042 481.923 163.11 482.038C163.178 482.153 163.221 482.279 163.236 482.41C163.251 482.54 163.239 482.672 163.199 482.797C163.13 482.999 162.991 483.174 162.805 483.296C162.618 483.419 162.394 483.482 162.166 483.476Z" fill="white"/>
<path d="M115.728 456.874C115.512 456.877 115.3 456.817 115.122 456.702C114.944 456.588 114.81 456.424 114.738 456.235C107.827 439.791 106.255 404.608 106.126 403.111C106.12 402.848 106.224 402.592 106.417 402.399C106.61 402.205 106.876 402.089 107.16 402.073C107.441 402.077 107.711 402.177 107.917 402.354C108.124 402.53 108.253 402.772 108.279 403.031C108.279 403.39 109.894 439.372 116.675 455.517C116.727 455.64 116.752 455.771 116.749 455.903C116.746 456.036 116.714 456.166 116.656 456.286C116.598 456.407 116.514 456.516 116.411 456.606C116.307 456.697 116.185 456.768 116.051 456.814C115.947 456.849 115.838 456.869 115.728 456.874Z" fill="white"/>
<path d="M115.556 480.522C113.571 480.537 111.587 480.443 109.614 480.243C109.472 480.227 109.336 480.186 109.212 480.121C109.087 480.056 108.978 479.97 108.89 479.866C108.802 479.762 108.737 479.643 108.699 479.516C108.661 479.389 108.649 479.256 108.666 479.125C108.683 478.994 108.728 478.867 108.798 478.752C108.868 478.637 108.961 478.536 109.073 478.455C109.185 478.373 109.313 478.313 109.45 478.277C109.587 478.242 109.731 478.231 109.872 478.247C110.066 478.247 130.109 480.362 139.302 471.681C139.398 471.576 139.516 471.491 139.649 471.43C139.782 471.369 139.927 471.335 140.076 471.328C140.224 471.322 140.372 471.344 140.51 471.394C140.649 471.443 140.775 471.518 140.88 471.615C140.986 471.711 141.069 471.827 141.124 471.955C141.179 472.082 141.205 472.219 141.201 472.357C141.196 472.494 141.161 472.629 141.097 472.753C141.033 472.877 140.943 472.988 140.831 473.078C134.178 479.444 122.574 480.522 115.556 480.522Z" fill="white"/>
<path d="M100.055 102.626L97.7304 90.1927L85.7602 97.4967C84.6664 95.5012 83.1162 93.7509 81.2175 92.3679L86.9443 77.9992L76.1797 75.7841L68.3001 89.7536C65.4493 90.1994 62.6853 91.0333 60.0975 92.2282L56.6744 81.6912L43.8861 91.0109L44.7258 103.384C42.1216 106.088 39.7599 108.985 37.6642 112.045L27.115 111.546L19.709 126.933L28.7727 130.525C27.8265 133.707 27.2279 136.97 26.9858 140.264L15.4678 150.082L17.7714 162.535L29.7631 155.231C30.8505 157.225 32.4021 158.97 34.3057 160.34L28.6866 174.728L39.4512 176.924L50.7324 166.746C53.3374 166.367 52.6915 161.817 55.5334 160.519L58.9565 171.017L71.7232 161.717L71.4003 156.847C73.9838 154.173 83.758 148.286 85.8678 145.213L88.5159 141.221L95.9219 125.835L92.4773 120.048L88.6451 112.504L100.055 102.626ZM60.9802 143.556C51.163 150.701 48.0628 152.277 46.405 142.718C44.7473 133.159 50.3664 118.631 60.1837 111.466C70.0009 104.302 73.747 103.803 75.5124 113.342C77.2777 122.881 70.819 136.492 60.9802 143.556Z" fill="#E0E0E0"/>
<path d="M76.2654 75.7841L90.2377 83.2478L82.3581 97.1774L68.3857 89.7137L76.2654 75.7841Z" fill="#F5F5F5"/>
<path d="M111.703 97.6563L99.7326 104.96L85.7603 97.4966L97.7304 90.1925L111.703 97.6563Z" fill="#F5F5F5"/>
<path d="M109.787 133.239L100.723 129.667L86.7505 122.203L95.8142 125.775L109.787 133.239Z" fill="#E0E0E0"/>
<path d="M28.665 174.729L42.6374 182.173L48.3641 167.804L34.3917 160.34L28.665 174.729Z" fill="#E0E0E0"/>
<path d="M72.7998 178.48L58.8489 171.016L55.4258 160.519L69.3982 167.983L72.7998 178.48Z" fill="#E0E0E0"/>
<path d="M114.006 110.089L111.702 97.6565L99.7322 104.961C98.6305 102.964 97.073 101.214 95.168 99.8318L100.895 85.4631L90.2379 83.2479L82.3367 97.2175C79.4859 97.6633 76.7219 98.4972 74.1341 99.6921L70.7325 89.195L57.9442 98.5147L58.7839 110.888C56.1768 113.611 53.8151 116.528 51.7223 119.609L41.1516 119.11L33.7456 134.496L42.8093 138.088C41.8716 141.28 41.2732 144.548 41.0224 147.847L29.5259 157.526L31.8295 169.979L43.7997 162.675C44.9017 164.666 46.4593 166.409 48.3638 167.784L42.6371 182.152L53.4016 184.368L61.2813 170.398C64.143 169.957 66.916 169.116 69.5054 167.903L72.9069 178.401L85.6952 169.101L84.8556 156.728C87.4598 154.024 89.8215 151.127 91.9171 148.067L102.488 148.546L109.894 133.159L100.701 129.587C101.654 126.398 102.26 123.129 102.509 119.828L114.006 110.089ZM74.9738 151.1C65.178 158.245 55.7913 156.309 54.0044 146.77C52.2175 137.23 58.7408 123.68 68.5581 116.535C78.3754 109.391 87.7405 111.347 89.5274 120.886C91.3143 130.425 84.791 143.956 74.9738 151.1Z" fill="#EBEBEB"/>
<path d="M70.7333 89.1548L56.7609 81.691L43.9727 91.0107L57.945 98.4745L70.7333 89.1548Z" fill="#F5F5F5"/>
<path d="M43.9727 91.0109L44.8123 103.384L58.7846 110.848L57.945 98.4746L43.9727 91.0109Z" fill="#E0E0E0"/>
<path d="M51.7228 119.509L37.7504 112.045L27.2012 111.566L41.152 119.03L51.7228 119.509Z" fill="#F5F5F5"/>
<path d="M27.2014 111.566L19.7954 126.933L33.7463 134.396L41.1522 119.03L27.2014 111.566Z" fill="#E0E0E0"/>
<path d="M41.0226 147.727L27.0718 140.263L15.5537 150.082L29.5046 157.546L41.0226 147.727Z" fill="#F5F5F5"/>
<path d="M31.8297 169.999L17.8573 162.535L15.5537 150.082L29.5046 157.546L31.8297 169.999Z" fill="#E0E0E0"/>
<path d="M90.238 83.2478L76.2656 75.7841L86.944 77.9992L100.895 85.463L90.238 83.2478Z" fill="#F5F5F5"/>
<path d="M37.4915 46.1886V27.609L21.5385 34.2745C20.6935 31.1223 19.2343 28.1397 17.2327 25.4737L27.2868 6.6946L15.0152 0.128906L2.48528 17.5909C-1.00652 17.3081 -4.52465 17.6261 -7.89175 18.5288L-9.65711 2.384L-27.0096 11.6837L-28.7534 29.6446C-32.5299 32.7465 -36.0025 36.1524 -39.1304 39.8224L-51.6603 35.8311L-63.9319 55.5482L-53.8994 63.5308C-55.7531 67.8763 -57.1939 72.3636 -58.2052 76.9416L-74.1582 87.3389V105.938L-58.2052 99.2729C-57.3602 102.425 -55.901 105.408 -53.8994 108.074L-63.8888 126.873L-51.6173 133.438L-39.0874 115.977C-35.5956 116.258 -32.0776 115.94 -28.7104 115.039L-26.9665 131.183L-9.61404 121.884L-7.84868 103.923C-2.4327 102.091 2.36511 98.9655 6.05911 94.8625L15.0583 97.7962L27.3298 78.099L19.7946 72.1121C21.4304 67.1197 22.0366 61.8862 21.5816 56.6857L37.4915 46.1886ZM-18.3333 92.6074C-31.6383 99.7319 -39.8624 94.6031 -39.8624 80.414C-39.8624 66.2249 -28.861 48.6831 -15.5346 41.5587C-2.20806 34.4342 5.84381 39.563 5.84381 53.8718C5.84381 68.1807 -5.00684 85.463 -18.3333 92.6074Z" fill="#E0E0E0"/>
<path d="M28.9661 7.5727L15.0153 0.128906L2.48535 17.5909L16.4362 25.0546L28.9661 7.5727Z" fill="#F5F5F5"/>
<path d="M51.4645 35.073L37.4921 27.6093L21.5391 34.2747L35.5114 41.7385L51.4645 35.073Z" fill="#F5F5F5"/>
<path d="M51.4642 53.7519V35.1724L35.5112 41.778C34.675 38.6229 33.2151 35.6389 31.2053 32.9772L41.2594 14.1981L28.9879 7.61243L16.458 25.0943C12.9661 24.8017 9.44601 25.1199 6.08092 26.0323L4.31553 9.84756L-13.0369 19.1473L-14.8023 37.1082C-18.5733 40.2152 -22.0454 43.6207 -25.1793 47.286L-37.7092 43.2947L-49.9808 63.0117L-39.9267 70.9943C-41.7903 75.3367 -43.2313 79.8249 -44.2325 84.4051L-60.1855 94.8025V113.402L-44.2325 106.736C-43.3969 109.892 -41.9369 112.876 -39.9267 115.537L-49.9808 134.316L-37.7092 140.882L-25.1793 123.42C-21.6875 123.703 -18.1694 123.385 -14.8023 122.482L-13.0369 138.627L4.31553 129.327L6.05941 111.366C9.83588 108.265 13.3084 104.859 16.4364 101.189L28.9663 105.18L41.2379 85.4828L31.1838 77.5002C33.0468 73.1576 34.4878 68.6695 35.4896 64.0894L51.4642 53.7519ZM-4.36069 100.171C-17.6872 107.295 -28.4948 101.508 -28.4948 87.2589C-28.4948 73.0099 -17.7302 55.6677 -4.36069 48.5233C9.00887 41.3789 19.7519 47.1862 19.7519 61.4352C19.7519 75.6841 8.94427 92.9266 -4.36069 100.071V100.171Z" fill="#EBEBEB"/>
<path d="M4.31552 9.84789L-9.65683 2.38416L-27.0093 11.6839L-13.0584 19.1476L4.31552 9.84789Z" fill="#F5F5F5"/>
<path d="M183.437 542.786L385.81 434.462C386.256 434.317 386.642 434.047 386.916 433.69C387.189 433.332 387.336 432.905 387.336 432.467C387.336 432.029 387.189 431.601 386.916 431.244C386.642 430.886 386.256 430.616 385.81 430.471L367.102 420.493C365.943 419.952 364.664 419.671 363.366 419.671C362.069 419.671 360.79 419.952 359.631 420.493L157.193 528.717C156.747 528.862 156.361 529.132 156.088 529.49C155.815 529.847 155.668 530.275 155.668 530.713C155.668 531.151 155.815 531.578 156.088 531.936C156.361 532.293 156.747 532.563 157.193 532.708L175.967 542.687C177.117 543.243 178.392 543.541 179.689 543.559C180.986 543.576 182.27 543.311 183.437 542.786Z" fill="#E0E0E0"/>
<path d="M380.256 16.2335L197.775 113.901C195.063 115.542 192.805 117.752 191.185 120.352C189.566 122.953 188.63 125.87 188.453 128.868V530.134C188.453 535.642 192.63 537.877 197.775 535.123L380.256 437.456C382.972 435.818 385.232 433.609 386.852 431.008C388.472 428.407 389.406 425.488 389.578 422.488V21.2227C389.578 15.7147 385.423 13.4795 380.256 16.2335Z" fill="#455A64"/>
<path d="M197.775 113.901L380.256 16.2334C384.863 13.7588 388.673 15.2954 389.449 19.5861C389.018 16.8885 387.976 14.3059 386.392 12.0082C384.807 9.71055 382.716 7.74986 380.256 6.25514L372.677 2.26384C369.788 0.9052 366.595 0.197144 363.355 0.197144C360.116 0.197144 356.922 0.9052 354.033 2.26384L171.531 99.8512C168.783 101.449 166.516 103.667 164.943 106.297L191.187 120.267C192.759 117.657 195.028 115.465 197.775 113.901Z" fill="#37474F"/>
<path d="M162.167 516.085C162.343 519.083 163.279 522 164.899 524.6C166.518 527.201 168.776 529.411 171.489 531.052L179.088 535.043C181.719 536.263 184.597 536.954 187.536 537.071C190.474 537.188 193.406 536.728 196.139 535.722C191.834 537.278 188.41 534.983 188.41 530.054V128.868C188.518 125.857 189.46 122.923 191.145 120.347L164.901 106.377C163.239 108.934 162.299 111.837 162.167 114.819V516.085Z" fill="#263238"/>
<path d="M202.792 167.364L375.304 75.0655C378.404 73.4291 380.902 74.7661 380.902 78.059V375.052C380.798 376.852 380.237 378.604 379.264 380.164C378.292 381.725 376.935 383.05 375.304 384.032L202.856 476.331C199.756 477.988 197.259 476.651 197.259 473.338V176.345C197.357 174.551 197.909 172.803 198.87 171.243C199.831 169.683 201.174 168.354 202.792 167.364Z" fill="white"/>
<path d="M289.016 80.2741C288.064 80.8535 287.272 81.6322 286.703 82.5472C286.135 83.4623 285.806 84.4883 285.744 85.5426C285.744 87.5382 287.208 88.2766 289.016 87.2988C289.972 86.7228 290.767 85.9451 291.336 85.0293C291.905 84.1135 292.231 83.0857 292.289 82.0302C292.289 80.0945 290.825 79.3162 289.016 80.2741Z" fill="#37474F"/>
<path d="M289.016 444.381C285.252 446.663 282.121 449.735 279.877 453.348C277.633 456.961 276.338 461.013 276.098 465.176C276.098 472.819 281.889 475.932 289.016 472.101C292.778 469.817 295.908 466.745 298.152 463.133C300.396 459.52 301.691 455.469 301.933 451.306C301.976 443.663 296.163 440.549 289.016 444.381Z" fill="#37474F"/>
<path d="M258.035 111.167C256.143 112.332 254.572 113.892 253.451 115.722C252.329 117.552 251.687 119.602 251.576 121.704C251.576 125.576 254.504 127.152 258.035 125.217C259.947 124.063 261.538 122.508 262.679 120.677C263.82 118.846 264.479 116.791 264.601 114.68C264.601 110.808 261.673 109.231 258.035 111.167Z" fill="#37474F"/>
<path d="M274.117 109.85C274.117 112.444 276.27 113.422 278.789 112.045L321.847 88.9555C323.181 88.1834 324.299 87.1302 325.111 85.8818C325.923 84.6334 326.405 83.225 326.519 81.7712C326.519 79.1968 324.366 78.2189 321.847 79.5959L278.789 102.686C277.458 103.456 276.341 104.506 275.53 105.75C274.718 106.995 274.234 108.4 274.117 109.85Z" fill="#37474F"/>
<path d="M176.72 180.217C178.248 181.139 179.52 182.382 180.433 183.846C181.345 185.309 181.873 186.951 181.973 188.638C181.973 191.752 179.627 193.009 176.72 191.452C175.198 190.526 173.931 189.282 173.022 187.819C172.114 186.356 171.588 184.716 171.489 183.031C171.489 179.937 173.835 178.68 176.72 180.217Z" fill="#37474F"/>
<path d="M176.72 217.695C178.248 218.618 179.52 219.861 180.433 221.324C181.345 222.787 181.873 224.429 181.973 226.117C181.973 229.21 179.627 230.467 176.72 228.931C175.198 228.005 173.931 226.76 173.022 225.297C172.114 223.835 171.588 222.194 171.489 220.509C171.489 217.396 173.835 216.138 176.72 217.695Z" fill="#37474F"/>
<path d="M175.083 180.975C176.611 181.897 177.883 183.141 178.795 184.604C179.708 186.067 180.236 187.709 180.336 189.396C180.336 192.49 177.99 193.747 175.083 192.21C173.555 191.288 172.284 190.045 171.371 188.581C170.458 187.118 169.93 185.476 169.83 183.789C169.852 180.675 172.198 179.478 175.083 180.975Z" fill="#455A64"/>
<path d="M175.083 218.433C176.614 219.358 177.887 220.604 178.8 222.071C179.713 223.538 180.239 225.184 180.336 226.875C180.336 229.968 177.99 231.226 175.083 229.669C173.552 228.75 172.277 227.508 171.364 226.044C170.451 224.58 169.925 222.936 169.83 221.247C169.852 218.154 172.198 216.897 175.083 218.433Z" fill="#455A64"/>
<path d="M415.821 87.4584C415.821 84.1456 413.324 82.8085 410.224 84.4649L389.577 95.5009L237.776 176.764C236.145 177.746 234.788 179.071 233.815 180.632C232.843 182.193 232.282 183.944 232.178 185.744V482.657C232.178 485.97 234.676 487.307 237.776 485.651L389.642 404.368L410.224 393.352C411.854 392.37 413.211 391.044 414.184 389.484C415.157 387.923 415.718 386.171 415.821 384.372V87.4584Z" fill="white"/>
<path d="M417.975 87.4585C418.11 86.4577 417.924 85.4421 417.44 84.5387C416.957 83.6354 416.196 82.8843 415.254 82.3795C414.312 81.8747 413.23 81.6387 412.144 81.7008C411.058 81.7629 410.016 82.1205 409.148 82.7288L389.449 93.2858L236.7 175.108C234.733 176.258 233.098 177.835 231.936 179.702C230.773 181.569 230.117 183.67 230.026 185.824V482.658C229.94 483.654 230.146 484.653 230.624 485.549C231.102 486.445 231.832 487.205 232.739 487.746C233.51 488.162 234.388 488.376 235.279 488.365C236.541 488.329 237.772 487.992 238.853 487.387L391.709 405.565L411.365 395.048C413.321 393.886 414.947 392.307 416.108 390.442C417.27 388.578 417.932 386.482 418.039 384.332L417.975 87.4585ZM389.492 402.153L387.726 403.111L236.786 483.895C236.532 484.076 236.238 484.201 235.926 484.264C235.613 484.326 235.289 484.322 234.978 484.254C234.698 484.094 234.418 483.536 234.418 482.618V185.744C234.529 184.295 234.994 182.889 235.777 181.63C236.561 180.372 237.642 179.295 238.939 178.48L389.729 97.6563L411.258 86.1015C411.511 85.9208 411.805 85.7948 412.118 85.7327C412.431 85.6706 412.755 85.6738 413.066 85.7423C413.346 85.9019 413.626 86.4607 413.626 87.3787V384.372C413.514 385.821 413.05 387.227 412.266 388.486C411.483 389.744 410.402 390.821 409.105 391.636L389.449 402.153H389.492Z" fill="#3118DF"/>
<path d="M324.001 156.448C343.377 146.111 358.986 154.453 358.986 175.187C358.986 195.922 343.312 221.087 324.001 231.345C304.689 241.603 289.016 233.341 289.016 212.626C289.016 191.911 304.689 166.806 324.001 156.448Z" fill="#3118DF"/>
<path d="M324 172.733C330.265 169.38 335.345 172.094 335.345 178.72C335.133 182.37 333.994 185.922 332.023 189.087C330.052 192.253 327.303 194.944 324 196.94C317.735 200.293 312.654 197.579 312.654 190.953C312.867 187.303 314.005 183.751 315.976 180.585C317.948 177.42 320.696 174.729 324 172.733Z" fill="#3118DF"/>
<path d="M346.111 208.495C346.111 197.479 337.779 193.009 327.467 198.517L321.008 201.969C310.717 207.477 302.364 220.888 302.364 231.904V234.878C308.327 236.694 315.819 235.716 323.893 231.345C332.836 226.232 340.399 219.289 346.003 211.05L346.111 208.495Z" fill="#3118DF"/>
<path opacity="0.7" d="M324 172.733C330.265 169.38 335.345 172.094 335.345 178.72C335.133 182.37 333.994 185.922 332.023 189.087C330.052 192.253 327.303 194.944 324 196.94C317.735 200.293 312.654 197.579 312.654 190.953C312.867 187.303 314.005 183.751 315.976 180.585C317.948 177.42 320.696 174.729 324 172.733Z" fill="white"/>
<path opacity="0.7" d="M346.111 208.495C346.111 197.479 337.779 193.009 327.467 198.517L321.008 201.969C310.717 207.477 302.364 220.888 302.364 231.904V234.878C308.327 236.694 315.819 235.716 323.893 231.345C332.836 226.232 340.399 219.289 346.003 211.05L346.111 208.495Z" fill="white"/>
<path d="M256.313 276.946L301.33 252.858C303.483 251.761 305.055 252.639 305.055 254.854V256.231C304.987 257.43 304.614 258.598 303.966 259.638C303.319 260.678 302.416 261.562 301.33 262.218L256.313 286.305C254.268 287.403 252.588 286.505 252.588 284.31V282.933C252.658 281.734 253.032 280.567 253.679 279.527C254.326 278.487 255.228 277.602 256.313 276.946Z" fill="#3118DF"/>
<path opacity="0.1" d="M256.313 276.946L301.33 252.858C303.483 251.761 305.055 252.639 305.055 254.854V256.231C304.987 257.43 304.614 258.598 303.966 259.638C303.319 260.678 302.416 261.562 301.33 262.218L256.313 286.305C254.268 287.403 252.588 286.505 252.588 284.31V282.933C252.658 281.734 253.032 280.567 253.679 279.527C254.326 278.487 255.228 277.602 256.313 276.946Z" fill="black"/>
<path d="M254.461 306.022L390.654 233.141C391.666 232.582 392.506 233.022 392.506 234.139V248.867C392.468 249.465 392.281 250.046 391.96 250.566C391.638 251.085 391.192 251.528 390.654 251.86L254.461 324.742C253.428 325.3 252.588 324.841 252.588 323.744V309.016C252.625 308.416 252.814 307.832 253.14 307.312C253.465 306.792 253.918 306.35 254.461 306.022Z" fill="#3118DF"/>
<path opacity="0.2" d="M254.461 306.022L390.654 233.141C391.666 232.582 392.506 233.022 392.506 234.139V248.867C392.468 249.465 392.281 250.046 391.96 250.566C391.638 251.085 391.192 251.528 390.654 251.86L254.461 324.742C253.428 325.3 252.588 324.841 252.588 323.744V309.016C252.625 308.416 252.814 307.832 253.14 307.312C253.465 306.792 253.918 306.35 254.461 306.022Z" fill="white"/>
<path d="M256.313 342.463L301.33 318.376C303.483 317.278 305.055 318.176 305.055 320.371V321.748C304.988 322.948 304.616 324.116 303.969 325.157C303.321 326.197 302.417 327.081 301.33 327.735L256.313 351.823C254.268 352.94 252.588 352.042 252.588 349.827V348.45C252.662 347.252 253.037 346.086 253.683 345.047C254.33 344.007 255.231 343.122 256.313 342.463Z" fill="#3118DF"/>
<path opacity="0.1" d="M256.313 342.463L301.33 318.376C303.483 317.278 305.055 318.176 305.055 320.371V321.748C304.988 322.948 304.616 324.116 303.969 325.157C303.321 326.197 302.417 327.081 301.33 327.735L256.313 351.823C254.268 352.94 252.588 352.042 252.588 349.827V348.45C252.662 347.252 253.037 346.086 253.683 345.047C254.33 344.007 255.231 343.122 256.313 342.463Z" fill="black"/>
<path d="M254.461 371.539L390.654 298.658C391.666 298.099 392.506 298.558 392.506 299.656V314.384C392.468 314.982 392.281 315.563 391.96 316.083C391.638 316.602 391.192 317.045 390.654 317.378L254.461 390.259C253.428 390.817 252.588 390.378 252.588 389.261V374.533C252.625 373.933 252.814 373.349 253.14 372.829C253.465 372.309 253.918 371.867 254.461 371.539Z" fill="#3118DF"/>
<path opacity="0.2" d="M254.461 371.539L390.654 298.658C391.666 298.099 392.506 298.558 392.506 299.656V314.384C392.468 314.982 392.281 315.563 391.96 316.083C391.638 316.602 391.192 317.045 390.654 317.378L254.461 390.259C253.428 390.817 252.588 390.378 252.588 389.261V374.533C252.625 373.933 252.814 373.349 253.14 372.829C253.465 372.309 253.918 371.867 254.461 371.539Z" fill="white"/>
<path d="M308.779 379.901L362.602 351.144C364.755 350.026 366.348 350.924 366.348 353.14V368.546C366.277 369.747 365.901 370.916 365.25 371.956C364.599 372.997 363.692 373.88 362.602 374.533L308.779 403.31C306.626 404.408 305.055 403.51 305.055 401.315V385.888C305.13 384.69 305.505 383.525 306.152 382.486C306.799 381.447 307.698 380.561 308.779 379.901Z" fill="#3118DF"/>
<path opacity="0.1" d="M308.779 379.901L362.602 351.144C364.755 350.026 366.348 350.924 366.348 353.14V368.546C366.277 369.747 365.901 370.916 365.25 371.956C364.599 372.997 363.692 373.88 362.602 374.533L308.779 403.31C306.626 404.408 305.055 403.51 305.055 401.315V385.888C305.13 384.69 305.505 383.525 306.152 382.486C306.799 381.447 307.698 380.561 308.779 379.901Z" fill="black"/>
<path d="M436.232 314.883C436.232 314.883 409.794 281.077 408.244 276.966C407.017 273.932 408.244 269.422 408.632 267.327C409.019 265.231 409.364 260.561 409.751 259.344C410.397 257.069 407.233 257.528 405.446 259.603C403.659 261.679 403.056 265.83 402.13 266.508C401.204 267.187 394.164 257.668 390.483 253.277C386.801 248.887 384.498 246.212 382.237 247.849C380.623 249.026 381.828 251.581 384.498 255.333C386.057 257.353 387.494 259.452 388.804 261.619C389.213 262.437 387.017 262.497 385.833 264.193C384.907 265.51 385.833 267.646 384.541 268.664C383.746 269.224 383.201 270.037 383.011 270.946C382.82 271.855 382.997 272.797 383.507 273.593C385.904 277.081 388.995 280.115 392.614 282.533C396.576 285.068 398.169 285.966 400.515 289.418C402.862 292.871 423.918 328.134 425.338 330.249C426.759 332.365 429.494 336.675 433.649 336.795C437.804 336.915 471.82 309.774 473.564 308.417C479.161 304.086 480.948 303.468 481.895 307.359C482.223 308.743 482.467 310.142 482.627 311.55C483.295 316.499 486.933 334.181 486.933 334.181C486.933 334.181 504.156 341.904 518.301 338.172C532.446 334.44 537.225 328.872 537.225 328.872L530.142 318.176C532.058 313.765 540.907 295.884 543.77 283.372L499.42 276.726C498.516 276.546 497.052 276.207 495.114 275.748C492.681 275.149 486.503 273.174 481.831 276.966C466.588 289.279 436.275 314.883 436.275 314.883" fill="#FFA8A7"/>
<path d="M524.157 522.311L516.213 532.549C519.823 534.112 523.768 534.896 527.752 534.844C534.879 535.083 536.838 532.848 537.096 532.409C538.302 530.014 536.429 525.704 535.912 521.992L524.157 522.311Z" fill="#37474F"/>
<path d="M516.663 527.639C516.663 527.639 507.018 527.061 500.366 526.302C493.713 525.544 488.439 528.537 489.989 531.072C491.539 533.606 495.22 535.722 500.947 537.498C505.834 539.035 511.712 540.132 516.793 541.489C521.874 542.846 525.404 544.622 528.354 543.664C531.648 542.607 533.069 541.389 532.789 539.154C532.07 535.975 531.179 532.831 530.119 529.735L516.663 527.639Z" fill="#37474F"/>
<path d="M537.095 512.033C537.095 512.033 535.89 521.333 535.804 523.329C535.717 525.324 526.008 525.963 524.156 522.311L523.855 510.936L537.095 512.033Z" fill="#F28F8F"/>
<path d="M527.321 517.741L530.787 531.87C530.787 531.87 531.11 533.586 523.187 534.684C515.265 535.782 502.821 530.832 500.689 529.835C498.558 528.837 498.321 526.821 506.115 527.22C513.908 527.619 516.664 527.639 516.664 527.639L514.123 521.393L527.321 517.741Z" fill="#FFA8A7"/>
<path d="M543.641 283.252L549.131 281.835C549.131 281.835 560.606 315.501 561.876 318.754C563.146 322.007 564.588 325.44 562.113 329.451C559.163 334.221 543.641 353.399 543.641 353.399L533.78 344.458L544.975 325.46L535.072 306.9L543.641 283.252Z" fill="#F28F8F"/>
<path d="M487.256 239.527C485.969 237.287 485.315 234.782 485.357 232.245C485.398 229.707 486.133 227.221 487.493 225.019C492.961 215.619 505.146 211.049 519.657 212.785C526.374 213.604 534.297 218.772 538.624 226.495C543.404 235.057 543.856 252.299 545.083 258.825L487.256 239.527Z" fill="#37474F"/>
<path d="M486.869 243.219C486.869 243.219 483.424 249.306 484.027 249.865C484.92 250.348 485.896 250.686 486.912 250.863L486.869 243.219Z" fill="#FFA8A7"/>
<path d="M497.331 223.981C493.585 226.236 487.126 230.387 486.846 244.057C486.545 258.027 488.698 262.637 490.937 264.253C492.444 265.351 501.292 264.792 505.081 263.974C508.87 263.156 519.786 258.147 523.726 250.543C528.354 241.603 527.407 228.591 520.539 224.6C517.044 222.684 513.08 221.622 509.021 221.514C504.962 221.405 500.939 222.255 497.331 223.981Z" fill="#FFA8A7"/>
<path d="M537.095 328.793C543.726 338.372 550.013 346.754 551.391 357.57C554.233 380.301 544.932 406.284 542.93 423.107C546.695 427.893 548.866 433.596 549.173 439.512C549.173 446.477 537.095 512.034 537.095 512.034C537.095 512.034 528.312 514.508 523.855 510.936L515.566 390.339L519.872 375.651L537.095 328.793Z" fill="#3118DF"/>
<path opacity="0.2" d="M537.095 328.793C543.726 338.372 550.013 346.754 551.391 357.57C554.233 380.301 544.932 406.284 542.93 423.107C546.695 427.893 548.866 433.596 549.173 439.512C549.173 446.477 537.095 512.034 537.095 512.034C537.095 512.034 528.312 514.508 523.855 510.936L515.566 390.339L519.872 375.651L537.095 328.793Z" fill="black"/>
<path d="M515.566 390.339L519.872 375.651C528.117 373.639 536.068 370.711 543.554 366.93C543.554 366.93 539.076 374.493 526.202 378.644L519.549 397.503L518.99 440.709L515.566 390.339Z" fill="#3118DF"/>
<path opacity="0.3" d="M515.566 390.339L519.872 375.651C528.117 373.639 536.068 370.711 543.554 366.93C543.554 366.93 539.076 374.493 526.202 378.644L519.549 397.503L518.99 440.709L515.566 390.339Z" fill="black"/>
<path d="M537.096 328.793C540.648 334.181 549.131 343.361 547.322 352.202C545.169 362.899 538.926 370.422 519.937 375.651L502.111 435.52C502.111 435.52 511.39 443.503 514.232 451.226C517.074 458.949 527.322 517.781 527.322 517.781C527.322 517.781 524.136 522.591 514.125 521.433C514.125 521.433 479.226 447.594 476.772 442.785C473.793 437.914 472.749 432.23 473.822 426.72C474.92 418.977 486.74 334.221 486.74 334.221L537.096 328.793Z" fill="#3118DF"/>
<path opacity="0.2" d="M537.096 328.793C540.648 334.181 549.131 343.361 547.322 352.202C545.169 362.899 538.926 370.422 519.937 375.651L502.111 435.52C502.111 435.52 511.39 443.503 514.232 451.226C517.074 458.949 527.322 517.781 527.322 517.781C527.322 517.781 524.136 522.591 514.125 521.433C514.125 521.433 479.226 447.594 476.772 442.785C473.793 437.914 472.749 432.23 473.822 426.72C474.92 418.977 486.74 334.221 486.74 334.221L537.096 328.793Z" fill="black"/>
<path d="M543.639 283.252L499.289 276.606C498.385 276.427 496.921 276.087 494.984 275.628C494.984 275.628 493.089 301.412 481.7 307.319C481.98 308.557 482.217 309.934 482.432 311.51C483.1 316.459 486.738 334.141 486.738 334.141C486.738 334.141 503.961 341.864 518.106 338.132C532.25 334.4 537.03 328.833 537.03 328.833L529.947 318.136C531.927 313.686 540.841 295.804 543.639 283.252Z" fill="#3118DF"/>
<path opacity="0.7" d="M543.639 283.252L499.289 276.606C498.385 276.427 496.921 276.087 494.984 275.628C494.984 275.628 493.089 301.412 481.7 307.319C481.98 308.557 482.217 309.934 482.432 311.51C483.1 316.459 486.738 334.141 486.738 334.141C486.738 334.141 503.961 341.864 518.106 338.132C532.25 334.4 537.03 328.833 537.03 328.833L529.947 318.136C531.927 313.686 540.841 295.804 543.639 283.252Z" fill="white"/>
<path d="M531.95 313.885C526.06 317.164 519.889 319.987 513.5 322.327C519.299 322.219 524.977 320.765 530.012 318.096L531.95 313.885Z" fill="#3118DF"/>
<path d="M496.234 224.659C496.234 224.659 494.081 237.631 499.162 245.255C499.162 245.255 501.056 240.086 505.771 241.064C510.486 242.042 510.744 247.809 507.429 251.042C506.586 251.949 505.485 252.617 504.251 252.97C503.017 253.323 501.701 253.346 500.453 253.038C500.453 253.038 499.7 262.417 499.291 270.28C498.882 278.143 496.643 295.286 506.18 302.211C515.718 309.135 539.658 311.57 550.875 297.042C557.118 288.959 548.829 274.671 544.976 258.645C541.423 243.918 539.421 222.085 522.564 218.573C505.707 215.06 496.234 224.659 496.234 224.659Z" fill="#37474F"/>
<path d="M558.086 47.4262L554.534 49.4219C554.832 48.2502 554.998 47.0531 555.029 45.8496C555.029 39.1642 549.97 36.4701 543.726 39.8627C541.826 40.9251 540.131 42.274 538.71 43.854C538.71 34.8735 531.907 31.2215 523.51 35.7117C519.086 38.3864 515.404 41.9903 512.763 46.2308C510.122 50.4714 508.597 55.2293 508.311 60.1186C508.311 60.5776 508.311 61.0166 508.311 61.4556C506.148 61.2034 503.959 61.67 502.132 62.7728C498.842 64.7599 496.104 67.4382 494.14 70.5901C492.177 73.742 491.042 77.2787 490.829 80.9132C490.828 81.7581 490.922 82.6009 491.109 83.4278L489.215 84.4456C484.069 87.1996 479.893 92.5679 479.893 96.4195C479.893 100.271 484.069 101.189 489.215 98.4151L558.108 61.5953C563.253 58.8413 567.43 53.473 567.43 49.6214C567.43 45.7698 563.232 44.6522 558.086 47.4262Z" fill="#EBEBEB"/>
</svg>
